<svg xmlns="http://www.w3.org/2000/svg" width="283.82" height="58.608" viewBox="0 0 283.82 58.608"><defs><style>.a{fill:#fff;}</style></defs><g transform="translate(141.91 29.304)"><g transform="translate(-141.91 -29.304)"><path class="a" d="M96.712,62.463a4.891,4.891,0,0,1,2,.481l.641-1.122a5.612,5.612,0,0,0-2.646-.722c-3.448,0-5.612,2.245-5.612,4.73s2.165,4.891,5.532,4.891a5.933,5.933,0,0,0,2.646-.641l-.561-1.122a4.41,4.41,0,0,1-2,.481,3.367,3.367,0,0,1-3.528-3.528,3.287,3.287,0,0,1,3.528-3.448Z" transform="translate(-18.06 -12.113)"/><path class="a" d="M116.531,61.1a4.811,4.811,0,1,0,4.891,4.65,4.73,4.73,0,0,0-4.891-4.65Zm0,8.338c-2.085,0-2.806-1.844-2.806-3.608s.8-3.367,2.806-3.367,2.806,1.6,2.806,3.367S118.616,69.438,116.531,69.438Z" transform="translate(-22.165 -12.112)"/><path class="a" d="M136.8,61.3h-2v9.381h5.933V69.4H136.8Z" transform="translate(-26.724 -12.153)"/><path class="a" d="M154.624,61.3H152.7v9.381h5.853V69.4h-3.929Z" transform="translate(-30.272 -12.153)"/><path class="a" d="M172.5,66.431h3.207V65.148H172.5V62.583h3.287V61.3H170.5v9.381h5.853V69.4H172.5Z" transform="translate(-33.801 -12.153)"/><path class="a" d="M194.9,69.2a3.528,3.528,0,0,1-1.363.241,3.367,3.367,0,0,1-3.367-3.528,3.287,3.287,0,0,1,3.528-3.448,5.131,5.131,0,0,1,2.085.481l.641-1.122a5.692,5.692,0,0,0-2.806-.722c-3.448,0-5.612,2.245-5.612,4.73s2.165,4.891,5.532,4.891a10.9,10.9,0,0,0,3.287-.561V66.392h-2Z" transform="translate(-37.271 -12.113)"/><path class="a" d="M212.824,66.431h3.287V65.148h-3.287V62.583h3.287V61.3H210.9v9.381h5.853V69.4h-3.929Z" transform="translate(-41.81 -12.153)"/><path class="a" d="M108.283,37.053l2.245-5.211-.962.481a15.714,15.714,0,0,1-7.536,2.245c-5.773,0-8.9-5.051-8.9-9.781s3.367-8.579,8.178-8.579a12.187,12.187,0,0,1,6.494,2l.481.321V13.482h-.16a28.7,28.7,0,0,0-6.655-.882c-7.7,0-13.069,5.292-13.069,12.828s5.452,12.828,14.111,12.828a13.149,13.149,0,0,0,5.612-1.122Z" transform="translate(-17.525 -2.498)"/><path class="a" d="M136.242,30.678a8.98,8.98,0,0,0-9.3-8.98C121.169,21.7,117,25.627,117,31s4.089,8.98,9.461,8.98A9.521,9.521,0,0,0,136.242,30.678Zm-9.621,6.254c-3.528,0-5.372-3.367-5.372-6.574s2.165-5.612,5.211-5.612,5.452,3.448,5.452,6.655a5.211,5.211,0,0,1-5.292,5.532Z" transform="translate(-23.195 -4.301)"/><path class="a" d="M170.646,20.036l-.561.16-.641.241h-3.688V18.273c0-2.245.481-2.806,2.245-2.806a2.806,2.806,0,0,1,1.684.561l.241.16,3.127-3.448-3.127-.241h0c-2,0-4.811.241-6.655,2.405s-1.443,2.726-1.443,4.41V20.6L159.662,23.4h2.165V34.388c0,.16-.16,2-1.2,2.566l-.722.4-.561-.4c-1.283-.722-1.283-1.684-1.2-3.047V27.653c0-1.684,0-3.768-.962-5.131s-3.929-2.646-5.773-2.646a6.013,6.013,0,0,0-4.811,2.245V19.636l-.561.241a4.49,4.49,0,0,1-2.245.4H140.5l1.042.722c1.283.722,1.283,1.684,1.2,3.127v9.781c0,1.363,0,2.405-1.2,3.127l-1.042.561h8.418l-1.042-.722c-1.283-.722-1.283-1.684-1.2-3.047v-6.9c0-2.806,1.042-4.009,3.528-4.009s4.089,1.523,4.089,5.532v5.452c0,1.363,0,2.325-1.2,3.047l-1.042.561h15.073l.16-.722c-1.283-.641-1.363-2.245-1.363-3.768V23.4h3.127a1.16,1.16,0,0,1,1.042.4l.561.962Z" transform="translate(-27.854 -2.478)"/><path class="a" d="M187.381,21.7c-5.532,0-9.381,3.688-9.381,8.98s4.49,9.22,10.743,9.22a13.229,13.229,0,0,0,5.131-.962h.08l1.844-3.528-.561-.4a9.22,9.22,0,0,1-5.773,1.844c-4.009,0-6.655-2.485-6.9-6.334H195.8v-.641a8.178,8.178,0,0,0-2.245-5.773,8.5,8.5,0,0,0-6.174-2.405Zm-4.57,6.173a4.169,4.169,0,0,1,4.249-3.127c2.405,0,3.768,1.042,4.249,3.127Z" transform="translate(-35.288 -4.301)"/><path class="a" d="M219.52,33.768V11.8l-.641.8c-.321.481-1.122.481-1.844.481h-3.608l.962.722c1.122.641,1.2,1.443,1.2,2.646v5.131A8.882,8.882,0,0,0,201.4,28.957c0,5.211,3.768,9.06,9.461,9.06a6.815,6.815,0,0,0,2-.16h.08l2.165-3.367-.4-.4a5.372,5.372,0,0,1-2.967,1.042,6.26,6.26,0,0,1-6.093-6.574c0-3.688,2.245-5.612,4.971-5.612a4.811,4.811,0,0,1,4.41,2.405,8.017,8.017,0,0,1,.561,3.688v8.5h6.173l-1.042-.722C219.52,36.173,219.52,35.131,219.52,33.768Z" transform="translate(-39.927 -2.339)"/><path class="a" d="M243.118,35.088a9.22,9.22,0,0,1-5.773,1.844c-4.009,0-6.655-2.485-6.9-6.334h13.229v-.641a8.178,8.178,0,0,0-2.245-5.773A8.5,8.5,0,0,0,235.18,21.7c-5.532,0-9.38,3.688-9.38,8.98s4.49,9.22,10.743,9.22a13.229,13.229,0,0,0,5.131-.962h.08l1.844-3.528ZM234.94,24.746c2.405,0,3.768,1.042,4.249,3.127h-8.5A4.169,4.169,0,0,1,234.94,24.746Z" transform="translate(-44.764 -4.301)"/><path class="a" d="M254.093,35.09V30.039c0-3.528,1.042-4.891,3.608-4.891a2,2,0,0,1,1.443.481l.561.561v-4.41l-1.6-.16a5.051,5.051,0,0,0-4.009,2.085V21.3l-.641.481a3.367,3.367,0,0,1-2,.4H248l1.042.722c1.2.722,1.2,1.684,1.2,3.047v9.7c0,1.363,0,2.405-1.2,3.127L248,39.339h8.418l-1.042-.722c-1.283-.722-1.283-1.684-1.2-3.127Z" transform="translate(-49.165 -4.223)"/><path class="a" d="M276.552,33V27.553c-.08-5.211-4.169-5.853-7.216-5.853l-2.405.241h-.16l-3.127,4.65,1.122-.481a10.744,10.744,0,0,1,4.73-1.363c1.283,0,3.127.561,3.127,2S270.7,28.6,268.535,29s-6.735,1.283-6.735,5.372,2.726,5.612,6.494,5.612l2.085-.16h.08l2.325-2.966c.561,2.966,3.848,3.127,4.971,3.207h.16l2-2.966h-.481C276.632,36.693,276.552,35.891,276.552,33Zm-4.329,3.448a9.3,9.3,0,0,1-2.485.481c-1.122,0-3.608-.241-3.608-2.646s1.6-2.325,3.367-2.646h.241a17.638,17.638,0,0,0,2.967-.962v5.292q.03.2.08.4Z" transform="translate(-51.901 -4.302)"/><path class="a" d="M291.141,35.724a3.047,3.047,0,0,1-2.245-.8,4.41,4.41,0,0,1-.882-3.047V24.018H290.1c.8,0,1.684,0,2.085.561l.561.722V20.491l-.561.321a2.646,2.646,0,0,1-1.2.16h-3.127V15.6h-1.924v.321c0,3.848-1.2,5.692-4.089,6.173H281.6v1.844h2.485v8.1c0,.241.16,3.768,1.6,5.211a5.131,5.131,0,0,0,3.848,1.363l1.363-.241h0l2.566-3.448-1.042.4A3.768,3.768,0,0,1,291.141,35.724Z" transform="translate(-55.827 -3.093)"/><path class="a" d="M302.674,35.632V21.2l-.641.481a3.287,3.287,0,0,1-2.165.481H296.5l1.042.722c1.283.722,1.283,1.684,1.2,3.047v9.7c0,1.363,0,2.405-1.2,3.127l-1.042.561h8.418l-1.042-.722C302.593,38.037,302.593,36.995,302.674,35.632Z" transform="translate(-58.78 -4.203)"/><path class="a" d="M301.846,19.131a2.567,2.567,0,1,0-2.646-2.646A2.646,2.646,0,0,0,301.846,19.131Z" transform="translate(-59.316 -2.775)"/><path class="a" d="M322.6,23.944a9.06,9.06,0,0,0-6.254-2.245c-5.773,0-9.942,3.929-9.942,9.3s4.089,8.98,9.461,8.98a9.521,9.521,0,0,0,9.781-9.3,9.14,9.14,0,0,0-3.047-6.735ZM316.1,36.932c-3.528,0-5.372-3.367-5.372-6.574s2.165-5.612,5.211-5.612,5.452,3.448,5.452,6.655a5.211,5.211,0,0,1-5.292,5.532Z" transform="translate(-60.743 -4.301)"/><path class="a" d="M348.041,38.718c-1.283-.722-1.283-1.684-1.2-3.047V29.418c0-1.684,0-3.688-.962-5.131s-3.929-2.646-5.773-2.646a6.013,6.013,0,0,0-4.81,2.245V21.4l-.561.241a4.49,4.49,0,0,1-2.245.4H329.2l1.042.722c1.283.722,1.2,1.684,1.2,3.127v9.781c0,1.363,0,2.405-1.2,3.127l-1.042.561h8.418l-1.042-.722c-1.283-.722-1.283-1.684-1.2-3.047V28.7c0-2.806,1.042-4.009,3.528-4.009s4.089,1.523,4.089,5.532v5.452c0,1.363,0,2.325-1.2,3.047l-1.042.561h8.338Z" transform="translate(-65.263 -4.243)"/><path class="a" d="M34.956,14.537a12.026,12.026,0,0,0-5.372,5.051,12.026,12.026,0,0,0-5.372-5.051C16.837,11.09,7.055,16.3,2.405,26.243A24.854,24.854,0,0,0,0,36.505a19.585,19.585,0,0,1,.8-1.924c4.009-8.5,12.427-12.988,18.761-10.022S27.9,36.906,23.972,45.4l-.962,1.844a24.854,24.854,0,0,0,6.334-8.418l.241-.561.241.561a24.934,24.934,0,0,0,6.334,8.418L35.277,45.4c-4.009-8.579-2-17.879,4.41-20.846s14.832,1.523,18.841,10.022a19.582,19.582,0,0,1,.8,1.924,24.854,24.854,0,0,0-2.405-10.262C52.194,16.3,42.413,11.09,34.956,14.537Z" transform="translate(0 -2.671)"/><path class="a" d="M35.788,9.862a4.73,4.73,0,0,0,4.49-4.971A4.73,4.73,0,0,0,35.788,0,4.73,4.73,0,0,0,31.3,4.971a4.73,4.73,0,0,0,4.49,4.891Z" transform="translate(-6.204)"/><path class="a" d="M17.614,32.113a5.292,5.292,0,0,0-2.966,6.334,4.249,4.249,0,0,0,5.773,2.726,5.292,5.292,0,0,0,2.966-6.334,4.249,4.249,0,0,0-5.773-2.726Z" transform="translate(-2.862 -6.297)"/><path class="a" d="M53.72,32.113a4.249,4.249,0,0,0-5.773,2.726,5.292,5.292,0,0,0,2.966,6.334,4.249,4.249,0,0,0,5.773-2.726A5.292,5.292,0,0,0,53.72,32.113Z" transform="translate(-9.463 -6.297)"/></g></g></svg>