<svg xmlns="http://www.w3.org/2000/svg" width="168.355" height="80.133" viewBox="0 0 168.355 80.133"><defs><style>.a{fill:#fff;}</style></defs><g transform="translate(84.177 40.066)"><g transform="translate(-84.177 -40.066)"><path class="a" d="M73.124,116.374a3.855,3.855,0,0,1,1.58.379l.506-.885a4.424,4.424,0,0,0-2.085-.569c-2.717,0-4.424,1.77-4.424,3.792a4.047,4.047,0,0,0,4.361,3.855,4.74,4.74,0,0,0,2.085-.506l-.442-.885a3.476,3.476,0,0,1-1.58.379,2.654,2.654,0,0,1-2.781-2.781,2.591,2.591,0,0,1,2.781-2.781Z" transform="translate(-25.284 -42.814)"/><path class="a" d="M93.229,115.4a3.792,3.792,0,1,0,3.855,3.729,3.729,3.729,0,0,0-3.855-3.729Zm0,6.572c-1.643,0-2.212-1.454-2.212-2.844s.632-2.654,2.212-2.654,2.212,1.264,2.212,2.654S94.872,121.971,93.229,121.971Z" transform="translate(-32.94 -42.849)"/><path class="a" d="M114.117,115.6H112.6v7.331h4.613v-.948h-3.1Z" transform="translate(-41.441 -42.924)"/><path class="a" d="M132.017,115.6H130.5v7.331h4.613v-.948h-3.1Z" transform="translate(-48.029 -42.924)"/><path class="a" d="M149.88,119.581h2.528V118.57H149.88v-2.022h2.591V115.6H148.3v7.331h4.677v-.948h-3.1Z" transform="translate(-54.58 -42.924)"/><path class="a" d="M171.372,121.746a2.781,2.781,0,0,1-1.074.19,2.654,2.654,0,0,1-2.654-2.781,2.591,2.591,0,0,1,2.781-2.781,4.044,4.044,0,0,1,1.706.379l.506-.885a4.487,4.487,0,0,0-2.212-.569c-2.717,0-4.424,1.769-4.424,3.792a4.047,4.047,0,0,0,4.361,3.855,8.658,8.658,0,0,0,2.591-.442v-3.033h-1.58Z" transform="translate(-61.094 -42.814)"/><path class="a" d="M190.38,119.581h2.528V118.57H190.38v-2.022h2.591V115.6H188.8v7.331h4.677v-.948h-3.1Z" transform="translate(-69.486 -42.924)"/><path class="a" d="M10.807,84.114c-4.613,0-7.078-3.981-7.078-7.71a6.522,6.522,0,0,1,6.446-6.825,9.606,9.606,0,0,1,5.182,1.58l.379.253V67.494h-.19a22.751,22.751,0,0,0-5.245-.7C4.234,66.672,0,70.843,0,76.783S4.3,86.958,11.186,86.958a10.364,10.364,0,0,0,4.424-.885h.063l1.769-4.108-.758.379a12.386,12.386,0,0,1-5.877,1.77Z" transform="translate(0 -24.962)"/><path class="a" d="M41.366,77.6A7.141,7.141,0,0,0,36.436,75.9c-4.55,0-7.836,3.1-7.836,7.331s3.223,7.078,7.52,7.078a7.477,7.477,0,0,0,7.71-7.394A7.2,7.2,0,0,0,41.366,77.6ZM36.247,87.9c-2.781,0-4.234-2.717-4.234-5.245a4.179,4.179,0,0,1,4.108-4.424c2.338,0,4.3,2.781,4.3,5.308A4.171,4.171,0,0,1,36.247,87.9Z" transform="translate(-10.526 -28.31)"/><path class="a" d="M75.951,75.411V72.5l-.442.126L75,72.82h-2.97V71.177c0-1.77.379-2.275,1.769-2.275a2.212,2.212,0,0,1,1.327.442l.19.126,2.465-2.717-2.4-.253h0c-1.58,0-3.792.19-5.308,1.9s-1.138,2.149-1.138,3.476v1.011L67.23,75.095h1.706v8.784c0,.126-.126,1.58-.948,2.022l-.569.316-.442-.316c-1.011-.569-1.011-1.327-.948-2.4V78.57c0-1.327,0-2.97-.758-4.045a6.828,6.828,0,0,0-4.55-2.085,4.74,4.74,0,0,0-3.792,1.77V72.251l-.442.19a3.539,3.539,0,0,1-1.769.316H52l.822.569c1.011.569,1.011,1.327.948,2.465V83.5c0,1.074,0,1.9-.948,2.465L52,86.407h6.7l-.822-.569c-1.011-.569-1.011-1.327-.948-2.4V78c0-2.212.822-3.223,2.781-3.223s3.223,1.264,3.223,4.424v4.3c0,1.074,0,1.9-.948,2.4l-.822.442H73.044l.126-.569c-1.011-.506-1.074-1.77-1.074-2.97V75.158h2.528a.915.915,0,0,1,.822.316l.442.758Z" transform="translate(-19.138 -24.854)"/><path class="a" d="M97.194,75.9c-4.361,0-7.394,2.907-7.394,7.141s3.539,7.268,8.468,7.268a10.427,10.427,0,0,0,4.045-.758h.063l1.454-2.781-.442-.316a7.267,7.267,0,0,1-4.55,1.454A5.05,5.05,0,0,1,93.4,82.849h10.491v-.506a6.509,6.509,0,0,0-1.769-4.55A6.762,6.762,0,0,0,97.194,75.9Zm-3.6,4.866A3.286,3.286,0,0,1,96.941,78.3c1.9,0,2.97.822,3.349,2.465Z" transform="translate(-33.05 -28.311)"/><path class="a" d="M127.582,83.279V65.9l-.506.632c-.253.379-.885.379-1.454.379h-2.844l.758.569c.885.506.948,1.138.948,2.085v4.108A6.942,6.942,0,0,0,113.3,79.487c0,4.171,3.033,7.2,7.52,7.2a5.435,5.435,0,0,0,1.58-.126h.063l1.769-2.654-.316-.316a4.234,4.234,0,0,1-2.338.822,4.934,4.934,0,0,1-4.8-5.182c0-2.907,1.769-4.424,3.918-4.424a3.792,3.792,0,0,1,3.476,1.959,6.32,6.32,0,0,1,.442,2.97v6.509h4.929l-.822-.569C127.582,85.175,127.582,84.353,127.582,83.279Z" transform="translate(-41.699 -24.633)"/><path class="a" d="M151.387,86.416a7.268,7.268,0,0,1-4.55,1.454,5.05,5.05,0,0,1-5.435-5.056h10.491v-.506a6.509,6.509,0,0,0-1.77-4.55,6.762,6.762,0,0,0-4.929-1.959c-4.361,0-7.394,2.907-7.394,7.141s3.539,7.268,8.468,7.268a10.427,10.427,0,0,0,4.045-.758h.063l1.454-2.781ZM144.941,78.2c1.9,0,2.97.822,3.349,2.465h-6.7a3.286,3.286,0,0,1,3.349-2.465Z" transform="translate(-50.716 -28.275)"/><path class="a" d="M165.814,89.177c-1.011-.569-1.011-1.327-.948-2.465V82.288c0-2.781.822-3.855,2.844-3.855a1.58,1.58,0,0,1,1.138.379l.442.442V75.779l-1.264-.126a4.045,4.045,0,0,0-3.16,1.643V75.4l-.506.379a2.654,2.654,0,0,1-1.58.316H160l.822.569c.948.569.948,1.327.948,2.4v7.71c0,1.074,0,1.9-.948,2.465l-.822.442h6.636Z" transform="translate(-58.886 -28.129)"/><path class="a" d="M185.465,84.774V80.413c-.063-4.108-3.286-4.613-5.688-4.613l-1.9.19h-.126l-2.465,3.729.885-.379a8.531,8.531,0,0,1,3.729-1.074c1.011,0,2.528.442,2.528,1.58s-1.517,1.454-3.223,1.77-5.308,1.011-5.308,4.234,2.149,4.487,5.119,4.487l1.643-.126h.063l1.833-2.338c.442,2.338,3.033,2.528,3.918,2.528h.126l1.58-2.338H187.8C185.591,87.681,185.465,87.049,185.465,84.774Zm-3.413,2.717a7.394,7.394,0,0,1-2.022.379c-.885,0-2.844-.19-2.844-2.085s1.264-1.833,2.654-2.149h.19a14.03,14.03,0,0,0,2.338-.758v4.171a3.162,3.162,0,0,0,.063.379Z" transform="translate(-64.002 -28.276)"/><path class="a" d="M201.184,85.625a2.4,2.4,0,0,1-1.769-.632,3.476,3.476,0,0,1-.7-2.4V76.336h1.643a2.193,2.193,0,0,1,1.706.442l.442.569V73.555l-.442.253a2.085,2.085,0,0,1-.948.126h-2.465V69.7h-1.643v.253c0,3.033-.948,4.487-3.223,4.866h-.19v1.517h1.959v6.383c0,.126.126,2.97,1.264,4.108a4.045,4.045,0,0,0,3.033,1.074l1.074-.19h0l2.022-2.717-.822.316A2.97,2.97,0,0,1,201.184,85.625Z" transform="translate(-71.252 -26.031)"/><path class="a" d="M213.466,86.739V75.3l-.506.379a2.591,2.591,0,0,1-1.706.379H208.6l.822.569c1.011.569,1.011,1.327.948,2.4v7.647c0,1.074,0,1.9-.948,2.465l-.822.442h6.636l-.822-.569C213.466,88.571,213.466,87.813,213.466,86.739Z" transform="translate(-76.773 -28.092)"/><path class="a" d="M213.385,72.107a2.054,2.054,0,1,0,0-4.108,2.022,2.022,0,0,0-2.085,1.959,2.085,2.085,0,0,0,2.085,2.149Z" transform="translate(-77.766 -25.405)"/><path class="a" d="M231.366,77.568a7.141,7.141,0,0,0-4.929-1.769c-4.55,0-7.836,3.1-7.836,7.331s3.223,7.078,7.52,7.078a7.465,7.465,0,0,0,7.71-7.331A7.2,7.2,0,0,0,231.366,77.568Zm-5.119,10.3c-2.781,0-4.234-2.717-4.234-5.245A4.179,4.179,0,0,1,226.12,78.2c2.338,0,4.3,2.717,4.3,5.308a4.171,4.171,0,0,1-4.234,4.361Z" transform="translate(-80.453 -28.274)"/><path class="a" d="M256.351,89.25c-1.011-.569-1.011-1.327-.948-2.4V81.92c0-1.327,0-2.97-.758-4.045a6.828,6.828,0,0,0-4.55-2.085,4.74,4.74,0,0,0-3.792,1.77V75.6l-.442.19a3.539,3.539,0,0,1-1.77.316H241.5l.822.569c1.011.569,1.011,1.327.948,2.465v7.71c0,1.074,0,1.9-.948,2.465l-.822.442h6.636l-.822-.569c-1.011-.569-1.011-1.327-.948-2.4V81.351c0-2.212.822-3.223,2.781-3.223s3.223,1.264,3.223,4.424v4.3c0,1.074,0,1.833-.948,2.4l-.822.442h6.636Z" transform="translate(-88.881 -28.203)"/><path class="a" d="M111.509,22.3c5.056,2.338,6.636,9.732,3.476,16.494l-.758,1.454a19.654,19.654,0,0,0,4.992-6.7l.19-.442.19.442a19.654,19.654,0,0,0,4.992,6.7l-.758-1.454c-3.16-6.762-1.58-14.156,3.476-16.494S139,23.5,142.16,30.26a15.439,15.439,0,0,1,.632,1.517,19.654,19.654,0,0,0-1.9-8.152C137.23,15.788,129.52,11.617,123.58,14.4a9.479,9.479,0,0,0-4.234,3.981,9.479,9.479,0,0,0-4.234-3.981c-5.877-2.717-13.65,1.39-17.316,9.227a19.654,19.654,0,0,0-1.9,8.152,15.439,15.439,0,0,1,.632-1.517C99.818,23.5,106.454,19.9,111.509,22.3Z" transform="translate(-35.295 -5.361)"/><path class="a" d="M131.036,8.057a3.729,3.729,0,0,0,3.539-3.918,3.539,3.539,0,0,0-7.078,0,3.729,3.729,0,0,0,3.539,3.918Z" transform="translate(-46.922 -0.6)"/><path class="a" d="M115.252,39.281a4.171,4.171,0,0,0,2.338-4.993,3.349,3.349,0,0,0-4.55-2.149,4.171,4.171,0,0,0-2.338,4.993,3.349,3.349,0,0,0,4.55,2.149Z" transform="translate(-40.681 -12.106)"/><path class="a" d="M144.1,34.288a4.171,4.171,0,0,0,2.338,4.993,3.349,3.349,0,0,0,4.55-2.149,4.171,4.171,0,0,0-2.338-4.993,3.349,3.349,0,0,0-4.55,2.149Z" transform="translate(-52.973 -12.106)"/></g></g></svg>